<svg width="30" height="30" viewBox="0 0 30 30" fill="none" xmlns="http://www.w3.org/2000/svg">
<path d="M12.9801 9.74589V2.16772H0V27.8322H11.1979H12.9801H14.1683H27.0295H30V9.74589H12.9801ZM11.1979 9.74595V26.0499H1.78225V3.95003H11.1979V9.74595ZM25.2473 26.0499H15.9506V25.2312H25.2473V26.0499ZM25.2473 23.449H15.9506V22.6302H25.2473V23.449ZM25.2473 20.848H15.9506V20.0292H25.2473V20.848ZM25.2473 18.247H15.9506V17.4282H25.2473V18.247ZM28.2178 26.0499H27.0296V25.2312V23.449V22.6302V20.848V20.0292V18.247V15.646H14.1683V18.247V20.0292V20.848V22.6302V23.449V25.2312V26.0499H12.9801V11.5281H28.2178V26.0499Z" fill="white"/>
<path d="M7.38122 5.13818H5.59897H2.97046V12.5048H5.59897H7.38122H10.0097V5.13818H7.38122ZM5.59897 10.7226H4.75265V6.92043H5.59892L5.59897 10.7226ZM8.22743 10.7226H7.38122V6.92043H8.22743V10.7226Z" fill="white"/>
<path d="M7.38122 15.646H5.59897H2.97046V23.0127H5.59897H7.38122H10.0097V15.646H7.38122ZM5.59897 21.2304H4.75265V17.4282H5.59892L5.59897 21.2304ZM8.22743 21.2304H7.38122V17.4282H8.22743V21.2304Z" fill="white"/>
</svg>
