<svg width="32" height="32" viewBox="0 0 32 32" fill="none" xmlns="http://www.w3.org/2000/svg">
<path d="M30 7V3C30 2.73478 29.8946 2.48043 29.7071 2.29289C29.5196 2.10536 29.2652 2 29 2H3C2.73478 2 2.48043 2.10536 2.29289 2.29289C2.10536 2.48043 2 2.73478 2 3V7C2.00178 7.7728 2.18343 8.53457 2.53057 9.22502C2.8777 9.91546 3.38078 10.5156 4 10.978C4 10.986 4 10.992 4 11V28H3C2.73478 28 2.48043 28.1054 2.29289 28.2929C2.10536 28.4804 2 28.7348 2 29C2 29.2652 2.10536 29.5196 2.29289 29.7071C2.48043 29.8946 2.73478 30 3 30H29C29.2652 30 29.5196 29.8946 29.7071 29.7071C29.8946 29.5196 30 29.2652 30 29C30 28.7348 29.8946 28.4804 29.7071 28.2929C29.5196 28.1054 29.2652 28 29 28H28V11C28 10.992 28 10.986 28 10.978C28.6192 10.5156 29.1223 9.91546 29.4694 9.22502C29.8166 8.53457 29.9982 7.7728 30 7ZM10 28V19C10 18.7348 10.1054 18.4804 10.2929 18.2929C10.4804 18.1054 10.7348 18 11 18H13C13.2652 18 13.5196 18.1054 13.7071 18.2929C13.8946 18.4804 14 18.7348 14 19V28H10ZM26 16H19C18.7348 16 18.4804 16.1054 18.2929 16.2929C18.1054 16.4804 18 16.7348 18 17V25C18 25.2652 18.1054 25.5196 18.2929 25.7071C18.4804 25.8946 18.7348 26 19 26H23C23.2652 26 23.5196 25.8946 23.7071 25.7071C23.8946 25.5196 24 25.2652 24 25C24 24.7348 23.8946 24.4804 23.7071 24.2929C23.5196 24.1054 23.2652 24 23 24H20V18H26V28H16V19C16 18.2044 15.6839 17.4413 15.1213 16.8787C14.5587 16.3161 13.7956 16 13 16H11C10.2044 16 9.44129 16.3161 8.87868 16.8787C8.31607 17.4413 8 18.2044 8 19V28H6V11.9C6.32913 11.9668 6.66415 12.0003 7 12H9C10.0844 11.9975 11.1381 11.64 12 10.982C12.8619 11.64 13.9156 11.9975 15 12H17C18.0844 11.9975 19.1381 11.64 20 10.982C20.8619 11.64 21.9156 11.9975 23 12H25C25.3358 12.0003 25.6709 11.9668 26 11.9V16ZM28 7C28 7.79565 27.6839 8.55871 27.1213 9.12132C26.5587 9.68393 25.7956 10 25 10H23C22.5726 9.99962 22.1503 9.90663 21.7622 9.72744C21.3741 9.54825 21.0295 9.28712 20.752 8.962C20.6582 8.85559 20.5427 8.77037 20.4134 8.712C20.2841 8.65363 20.1439 8.62344 20.002 8.62344C19.8601 8.62344 19.7199 8.65363 19.5906 8.712C19.4613 8.77037 19.3458 8.85559 19.252 8.962C18.9741 9.28763 18.6288 9.54907 18.24 9.72828C17.8512 9.90749 17.4281 10.0002 17 10H15C14.5726 9.99962 14.1503 9.90663 13.7622 9.72744C13.3741 9.54825 13.0295 9.28712 12.752 8.962C12.6556 8.85982 12.5394 8.77842 12.4104 8.72277C12.2814 8.66713 12.1425 8.63843 12.002 8.63843C11.8615 8.63843 11.7226 8.66713 11.5936 8.72277C11.4646 8.77842 11.3484 8.85982 11.252 8.962C10.9741 9.28763 10.6288 9.54907 10.24 9.72828C9.85118 9.90749 9.42812 10.0002 9 10H7C6.20435 10 5.44129 9.68393 4.87868 9.12132C4.31607 8.55871 4 7.79565 4 7V4H28V7Z" fill="white"/>
</svg>
