<svg width="30" height="30" viewBox="0 0 30 30" fill="none" xmlns="http://www.w3.org/2000/svg">
<g clip-path="url(#clip0_4_30)">
<path d="M29.0217 3.26086C26.6991 3.26086 22.4696 3.26086 18.2609 3.26086C17.7208 3.26086 17.2826 3.69874 17.2826 4.23915C17.2826 4.77956 17.7208 5.21743 18.2609 5.21743H19.2391C19.2391 6.60422 19.2391 7.70151 19.2391 9.13049C15.8227 9.13049 13.0709 9.13049 9.4565 9.13049C8.91645 9.13049 8.47822 9.56836 8.47822 10.1088C8.47822 10.6492 8.91645 11.0871 9.4565 11.0871H10.4348C10.4348 12.4739 10.4348 13.5711 10.4348 15.0001C7.28291 15.0001 4.68164 15.0001 0.978281 15.0001C0.438223 15 0 15.4379 0 15.9783C0 16.5187 0.438223 16.9566 0.978281 16.9566H1.63043C1.63043 19.8332 1.63043 22.4234 1.63043 25.7609C1.63043 26.3013 2.06865 26.7392 2.60871 26.7392C3.14877 26.7392 3.58699 26.3013 3.58699 25.7609V20.8696H10.4348V25.7609C10.4348 26.3013 10.8731 26.7392 11.4131 26.7392C11.9532 26.7392 12.3914 26.3013 12.3914 25.7609C12.3914 21.9157 12.3914 18.8916 12.3914 15.0001H19.2393V25.7609C19.2393 26.3013 19.6775 26.7392 20.2175 26.7392C20.7576 26.7392 21.1958 26.3013 21.1958 25.7609C21.1958 18.45 21.1958 21.1346 21.1958 9.13049H28.0437V25.7609C28.0437 26.3013 28.4819 26.7392 29.022 26.7392C29.562 26.7392 30.0002 26.3013 30.0002 25.7609C30.0002 -1.19642 30.0002 8.85493 30.0002 4.2392C30 3.69874 29.5618 3.26086 29.0217 3.26086Z" fill="white"/>
</g>
<defs>
<clipPath id="clip0_4_30">
<rect width="30" height="30" fill="white"/>
</clipPath>
</defs>
</svg>
